<svg width="178" height="100" viewBox="0 0 178 100" fill="none" xmlns="http://www.w3.org/2000/svg">
<g filter="url(#filter0_d_3_13522)">
<rect x="4.5" y="0.5" width="169" height="91" rx="3.5" stroke="#AFB1B8"/>
<path d="M72.4063 65.1014C72.4222 65.1018 72.4379 65.1049 72.4524 65.1106C72.4669 65.1163 72.4799 65.1245 72.4908 65.1346L72.7089 65.3431C72.5396 65.5118 72.3304 65.6468 72.0955 65.7388C71.8204 65.8391 71.5239 65.8875 71.2257 65.8809C70.9455 65.8859 70.6671 65.8408 70.4078 65.7482C70.1739 65.6632 69.9638 65.5356 69.7916 65.3739C69.6159 65.2062 69.4805 65.0096 69.3935 64.7958C69.2982 64.5574 69.2512 64.3065 69.2545 64.0542C69.2506 63.8003 69.3015 63.548 69.4044 63.3103C69.4997 63.0951 69.6433 62.8986 69.827 62.7322C70.0132 62.5691 70.2359 62.4408 70.4814 62.3555C70.7499 62.265 71.0359 62.22 71.3239 62.2228C71.5914 62.2172 71.8575 62.2582 72.1064 62.3436C72.3223 62.425 72.5206 62.538 72.6926 62.6777L72.5099 62.9004C72.4973 62.9161 72.4816 62.9297 72.4635 62.9407C72.442 62.9535 72.4159 62.9594 72.3899 62.9573C72.3616 62.9556 72.3343 62.9474 72.3109 62.9336L72.2127 62.8743L72.0764 62.7985C72.0175 62.7704 71.9565 62.7458 71.8937 62.7251C71.8128 62.6999 71.7299 62.6801 71.6456 62.6659C71.5386 62.6487 71.4299 62.6408 71.3211 62.6422C71.1138 62.6399 70.908 62.6737 70.7159 62.7417C70.5367 62.8046 70.375 62.8999 70.2415 63.0212C70.1055 63.1503 70.0007 63.3018 69.9334 63.4667C69.8566 63.6553 69.8187 63.8542 69.8216 64.0542C69.8183 64.2574 69.8561 64.4595 69.9334 64.6513C69.9999 64.8147 70.1027 64.9653 70.236 65.0943C70.3609 65.2146 70.5157 65.3086 70.6886 65.3692C70.8666 65.4333 71.0576 65.4655 71.2503 65.4639C71.3615 65.4654 71.4728 65.4591 71.5829 65.445C71.7627 65.4259 71.9351 65.3716 72.0873 65.2862C72.1636 65.2425 72.2356 65.1934 72.3027 65.1393C72.3307 65.1161 72.3676 65.1026 72.4063 65.1014Z" fill="#AFB1B8"/>
<path d="M78.7044 64.0538C78.7078 64.3052 78.6579 64.5549 78.5572 64.7906C78.4684 65.0043 78.3284 65.1993 78.1465 65.3626C77.9646 65.526 77.745 65.654 77.5021 65.7382C76.9683 65.9151 76.3782 65.9151 75.8444 65.7382C75.603 65.6527 75.3848 65.5244 75.2037 65.3615C75.0219 65.1952 74.8809 64.9985 74.7893 64.7835C74.5929 64.3063 74.5929 63.7847 74.7893 63.3075C74.8823 63.0923 75.0231 62.8951 75.2037 62.7271C75.3864 62.5694 75.6045 62.446 75.8444 62.3647C76.3775 62.1846 76.969 62.1846 77.5021 62.3647C77.7443 62.4501 77.9634 62.5784 78.1455 62.7413C78.325 62.906 78.465 63.1001 78.5572 63.3123C78.6582 63.5495 78.7081 63.8009 78.7044 64.0538ZM78.1319 64.0538C78.1362 63.8527 78.1011 63.6524 78.0283 63.4615C77.9672 63.298 77.8679 63.1472 77.7366 63.0185C77.6087 62.8968 77.4513 62.8013 77.2758 62.739C76.8879 62.6094 76.4586 62.6094 76.0707 62.739C75.8952 62.8013 75.7378 62.8968 75.6099 63.0185C75.4768 63.1464 75.3764 63.2974 75.3155 63.4615C75.1768 63.8472 75.1768 64.2604 75.3155 64.6461C75.377 64.8099 75.4773 64.9608 75.6099 65.0891C75.7379 65.2101 75.8953 65.3047 76.0707 65.3662C76.4593 65.4925 76.8872 65.4925 77.2758 65.3662C77.4512 65.3047 77.6086 65.2101 77.7366 65.0891C77.8673 64.9601 77.9665 64.8094 78.0283 64.6461C78.1015 64.4552 78.1365 64.2549 78.1319 64.0538Z" fill="#AFB1B8"/>
<path d="M83.0013 64.6748L83.0586 64.8074C83.0804 64.76 83.0995 64.7174 83.1213 64.6748C83.1421 64.6302 83.1657 64.5867 83.1922 64.5445L84.5854 62.3439C84.6127 62.306 84.6372 62.2823 84.6645 62.2752C84.7015 62.2654 84.7403 62.2614 84.779 62.2634H85.1907V65.8426H84.7026V63.2109C84.7026 63.1777 84.7026 63.1398 84.7026 63.0995C84.7 63.0585 84.7 63.0174 84.7026 62.9764L83.3012 65.2077C83.2834 65.2412 83.255 65.2694 83.2192 65.2892C83.1834 65.3089 83.1418 65.3193 83.0995 65.3191H83.0204C82.9779 65.3196 82.9362 65.3093 82.9004 65.2896C82.8646 65.2698 82.8362 65.2413 82.8186 65.2077L81.3763 62.9622C81.3763 63.0048 81.3763 63.0474 81.3763 63.0901C81.3763 63.1327 81.3763 63.1706 81.3763 63.2038V65.8355H80.9047V62.2634H81.3164C81.355 62.2614 81.3938 62.2654 81.4309 62.2752C81.4647 62.2898 81.4916 62.314 81.5072 62.3439L82.9304 64.5469C82.9584 64.5876 82.9821 64.6304 83.0013 64.6748Z" fill="#AFB1B8"/>
<path d="M88.2444 64.4969V65.8376H87.6991V62.2632H88.9151C89.1446 62.2594 89.3735 62.2858 89.594 62.3414C89.7705 62.3849 89.9341 62.4608 90.0739 62.5641C90.195 62.6609 90.2883 62.7809 90.3465 62.9146C90.4109 63.0604 90.4423 63.2157 90.4392 63.3718C90.4416 63.5285 90.4073 63.6841 90.3383 63.829C90.2728 63.9661 90.1721 64.0884 90.0439 64.1866C89.904 64.2942 89.7395 64.3749 89.5613 64.4235C89.349 64.4824 89.127 64.5104 88.9042 64.5064L88.2444 64.4969ZM88.2444 64.1132H88.9042C89.0475 64.1148 89.1902 64.0964 89.3268 64.0587C89.4395 64.0258 89.5433 63.9734 89.6322 63.9048C89.7141 63.8392 89.7775 63.7582 89.8176 63.6679C89.8622 63.5724 89.8844 63.4701 89.883 63.3671C89.8893 63.2677 89.8707 63.1683 89.8283 63.0759C89.7859 62.9834 89.7208 62.9001 89.6376 62.8317C89.4293 62.6904 89.1677 62.622 88.9042 62.6399H88.2444V64.1132Z" fill="#AFB1B8"/>
<path d="M95.5731 65.8424H95.1423C95.0991 65.8439 95.0566 65.8322 95.0223 65.8093C94.9914 65.787 94.9671 65.7585 94.9514 65.7264L94.5806 64.8617H92.7185L92.334 65.7264C92.3199 65.758 92.2964 65.7858 92.2659 65.8069C92.2312 65.8312 92.1877 65.8438 92.1432 65.8424H91.7124L93.3483 62.2629H93.9154L95.5731 65.8424ZM92.8739 64.5134H94.4116L93.7627 63.0565C93.7131 62.9469 93.6721 62.8345 93.64 62.7201L93.5773 62.9072C93.5582 62.9641 93.5364 63.0162 93.5173 63.0589L92.8739 64.5134Z" fill="#AFB1B8"/>
<path d="M97.9288 62.2795C97.9614 62.2951 97.9894 62.317 98.0106 62.3435L100.396 65.0418C100.396 64.9991 100.396 64.9565 100.396 64.9162C100.396 64.8759 100.396 64.8357 100.396 64.7978V62.263H100.884V65.8425H100.612C100.573 65.8435 100.535 65.8362 100.5 65.8212C100.466 65.8041 100.437 65.7816 100.413 65.7548L98.0297 63.0589C98.0323 63.1 98.0323 63.1411 98.0297 63.1821C98.0297 63.2224 98.0297 63.2579 98.0297 63.2911V65.8425H97.5416V62.263H97.8306C97.8644 62.2621 97.8979 62.2678 97.9288 62.2795Z" fill="#AFB1B8"/>
<path d="M104.903 64.4188V65.8402H104.358V64.4188L102.85 62.2631H103.338C103.38 62.2609 103.422 62.2718 103.455 62.2939C103.485 62.3168 103.51 62.3441 103.529 62.3744L104.472 63.765C104.511 63.8242 104.543 63.8787 104.571 63.9308C104.598 63.9829 104.62 64.0327 104.639 64.0824L104.71 63.9285C104.736 63.8721 104.767 63.8175 104.802 63.765L105.732 62.3649C105.752 62.337 105.775 62.3115 105.803 62.2891C105.835 62.2646 105.877 62.2518 105.92 62.2536H106.414L104.903 64.4188Z" fill="#AFB1B8"/>
<path d="M82.7314 56.2561C82.9686 56.2822 83.2086 56.3035 83.4512 56.3225C87.1301 54.8926 90.2422 52.5523 92.3987 49.5942C94.5552 46.636 95.6603 43.1912 95.5759 39.6904L91.5216 36.1678C92.346 39.8951 91.9604 43.7482 90.408 47.2959C88.8555 50.8437 86.1976 53.9461 82.7314 56.2561Z" fill="#AFB1B8"/>
<path d="M81.2837 56.0923L81.3928 56.1112C85.0966 53.8094 87.9205 50.5951 89.4993 46.8839C91.078 43.1727 91.3389 39.1353 90.2483 35.2939L84.4737 30.2767C86.8094 34.4008 87.7495 39.0162 87.1848 43.5862C86.6201 48.1562 84.5737 52.493 81.2837 56.0923Z" fill="#AFB1B8"/>
<path d="M100.868 43.8266C99.8869 47.6732 97.5042 51.1423 94.0736 53.7189C93.0717 54.4756 91.991 55.1497 90.8455 55.7325C93.6389 55.0191 96.2065 53.7579 98.3503 52.046C100.494 50.3342 102.157 48.2175 103.21 45.8591L100.868 43.8266Z" fill="#AFB1B8"/>
<path d="M99.949 43.2602L96.6146 40.363C96.5508 43.6661 95.47 46.8941 93.4845 49.7115C91.499 52.5288 88.6813 54.8328 85.3242 56.3838H85.3406C86.0887 56.3836 86.8362 56.3448 87.579 56.2677C90.7164 55.1551 93.488 53.385 95.6464 51.1153C97.8049 48.8456 99.283 46.147 99.949 43.2602Z" fill="#AFB1B8"/>
<path d="M81.7663 28.161L77.7883 24.7C74.2322 25.894 71.1738 27.9929 69.0134 30.7221C66.8529 33.4513 65.6912 36.6836 65.6801 39.996V39.996C65.6934 43.656 67.1113 47.2077 69.7093 50.0888C72.3073 52.97 75.9371 55.016 80.0241 55.9031C83.6725 52.041 85.8086 47.2688 86.1219 42.2798C86.4352 37.2908 84.9094 32.345 81.7663 28.161Z" fill="#AFB1B8"/>
<path d="M109.14 42.7273C109.126 38.3849 107.134 34.2238 103.6 31.1532C100.066 28.0826 95.2764 26.352 90.2784 26.3395C87.9688 26.3374 85.6789 26.7077 83.5249 27.4316L107.88 48.5927C108.714 46.7221 109.142 44.7333 109.14 42.7273Z" fill="#AFB1B8"/>
</g>
<defs>
<filter id="filter0_d_3_13522" x="0" y="0" width="178" height="100" filterUnits="userSpaceOnUse" color-interpolation-filters="sRGB">
<feFlood flood-opacity="0" result="BackgroundImageFix"/>
<feColorMatrix in="SourceAlpha" type="matrix" values="0 0 0 0 0 0 0 0 0 0 0 0 0 0 0 0 0 0 127 0" result="hardAlpha"/>
<feOffset dy="4"/>
<feGaussianBlur stdDeviation="2"/>
<feComposite in2="hardAlpha" operator="out"/>
<feColorMatrix type="matrix" values="0 0 0 0 0 0 0 0 0 0 0 0 0 0 0 0 0 0 0.25 0"/>
<feBlend mode="normal" in2="BackgroundImageFix" result="effect1_dropShadow_3_13522"/>
<feBlend mode="normal" in="SourceGraphic" in2="effect1_dropShadow_3_13522" result="shape"/>
</filter>
</defs>
</svg>
